#N canvas 399 193 1521 835 12;
#X obj 27 169 hsl 128 15 0.1 12 0 0 \$1-s-dimX-slider \$1-r-dimX-slider
empty -2 -8 0 10 -262144 -1 -1 6300 1;
#X obj 157 37 vsl 15 128 0.1 16 0 0 \$1-s-offsetY-slider \$1-r-offsetY-slider
empty 0 -9 0 10 -262144 -1 -1 5400 1;
#X obj 8 38 vsl 15 128 0.1 16 0 0 \$1-s-dimY-slider \$1-r-dimY-slider
empty 0 -9 0 10 -262144 -1 -1 7700 1;
#X obj 26 19 hsl 128 15 0.1 12 0 0 \$1-s-offsetX-slider \$1-r-offsetX-slider
empty -2 -8 0 10 -262144 -1 -1 0 1;
#X text 39 35 offsetX;
#X text 100 58 offsetY;
#X obj 97 37 nbx 5 14 0.1 12 0 0 \$1-s-offsetX-num \$1-r-offsetX-num
empty 0 -8 0 10 -262144 -1 -1 0.1 256;
#X obj 99 77 nbx 5 14 0.1 16 0 0 \$1-s-offsetY-num \$1-r-offsetY-num
empty 0 -8 0 10 -262144 -1 -1 6.86063 256;
#X obj 26 69 nbx 5 14 0.1 16 0 0 \$1-s-dimY-num \$1-r-dimY-num empty
0 -8 0 10 -262144 -1 -1 9.74016 256;
#X obj 60 150 nbx 5 14 0.1 12 0 0 \$1-s-dimX-num \$1-r-dimX-num empty
0 -8 0 10 -262144 -1 -1 6.00315 256;
#X text 24 51 dimY;
#X text 23 148 dimX;
#X obj 377 400 spigot 1;
#X msg 429 371 1;
#X obj 239 311 t b f b;
#X msg 462 372 0;
#X obj 239 284 r \$1-s-dimY-slider;
#X obj 377 284 r \$1-s-dimY-num;
#X obj 378 427 s \$1-r-dimY-slider;
#X obj 262 375 s \$1-r-dimY-num;
#X obj 637 400 spigot 1;
#X msg 689 371 1;
#X obj 499 311 t b f b;
#X msg 722 372 0;
#X obj 499 284 r \$1-s-dimX-slider;
#X obj 637 284 r \$1-s-dimX-num;
#X obj 522 375 s \$1-r-dimX-num;
#X obj 638 427 s \$1-r-dimX-slider;
#X obj 382 576 spigot 1;
#X msg 434 547 1;
#X obj 244 487 t b f b;
#X msg 467 548 0;
#X obj 642 576 spigot 1;
#X msg 694 547 1;
#X obj 504 487 t b f b;
#X msg 727 548 0;
#X obj 244 460 r \$1-s-offsetY-slider;
#X obj 267 551 s \$1-r-offsetY-num;
#X obj 382 460 r \$1-s-offsetY-num;
#X obj 383 603 s \$1-r-offsetY-slider;
#X obj 504 460 r \$1-s-offsetX-slider;
#X obj 527 551 s \$1-r-offsetX-num;
#X obj 643 603 s \$1-r-offsetX-slider;
#X obj 642 460 r \$1-s-offsetX-num;
#X obj 510 64 r \$1-s-dimY-slider;
#X obj 373 64 r \$1-s-dimX-slider;
#X obj 643 64 r \$1-s-offsetX-slider;
#X obj 811 64 r \$1-s-offsetY-slider;
#X obj 809 91 t b f;
#X obj 643 89 t b f;
#X obj 510 90 t b f;
#X obj 802 242 t b a;
#X obj 801 357 textfile;
#X msg 802 321 write control-\$1.txt;
#X obj 802 278 int \$1;
#X msg 1014 530 read control-\$1.txt;
#X obj 960 557 textfile;
#X obj 1013 501 int \$1;
#X obj 948 460 t b b b;
#X msg 960 503 rewind;
#X obj 642 658 s \$1-r-dimX-slider;
#X obj 778 658 s \$1-r-dimY-slider;
#X obj 912 688 s \$1-r-offsetX-slider;
#X obj 1069 688 s \$1-r-offsetY-slider;
#X obj 948 409 loadbang;
#X obj 119 107 knob 32 32 -185 175 0 0 \$1-s-rotate-knob \$1-r-rotate-knob
empty 0 -8 0 8 4.71722e+06 32744 6.05902e+06 1593 1;
#X floatatom 118 145 5 -180 180 0 - #1-r-rotate-num #1-s-rotate-num
;
#X text 76 128 rotate;
#X obj 389 746 spigot 1;
#X msg 441 717 1;
#X obj 251 657 t b f b;
#X obj 251 630 r \$1-s-rotate-knob;
#X obj 390 773 s \$1-r-rotate-knob;
#X obj 247 748 s \$1-r-rotate-num;
#X obj 389 630 r \$1-s-rotate-num;
#X msg 475 717 0;
#X obj 102 466 r \$1-s-rotate-num;
#X obj 969 95 t b f;
#X obj 1080 664 s \$1-r-rotate-knob;
#X obj 102 524 moses -90;
#X obj 102 548 + 360;
#X obj 102 577 s \$1-r-rotate-conv;
#X obj 969 64 r \$1-s-rotate-knob;
#X obj 102 497 * -1;
#N canvas 0 63 1051 725 send 1;
#X obj 170 24 r \$1-s-dimY-slider;
#X obj 33 24 r \$1-s-dimX-slider;
#X obj 303 24 r \$1-s-offsetX-slider;
#X obj 471 24 r \$1-s-offsetY-slider;
#X obj 629 24 r \$1-r-rotate-conv;
#X obj 80 375 netsend -u;
#X obj 80 290 list trim;
#X obj 300 336 list prepend connect;
#X obj 300 363 list trim;
#X obj 300 281 int \$1;
#X msg 176 386 localhost 3000;
#X msg 40 149 send;
#X obj 267 157 r debug;
#X obj 267 248 select 1 0;
#X obj 33 53 t b f;
#X obj 170 49 t b f;
#X obj 303 49 t b f;
#X obj 471 49 t b f;
#X obj 629 49 t b f;
#X obj 300 390 print sending to netsend:;
#X obj 267 192 t f b;
#X msg 130 323 disconnect;
#X obj 80 321 t b a;
#X obj 41 462 s update;
#X msg 180 529 send;
#X msg 300 309 172.16.1.\$1 3000;
#X obj 288 589 r \$1-r-rotate-conv;
#X obj 201 554 r totalXInches;
#X obj 308 554 r totalYInches;
#X obj 51 211 spigot 1;
#X obj 114 130 r s-all-on-all;
#X obj 111 159 == 0;
#X obj 180 471 r s-all-on-all;
#X obj 180 500 select 1;
#X obj 109 183 t b f;
#X obj 774 52 t b f;
#X obj 774 21 r \$1-s-tx-num;
#X obj 819 71 t b f;
#X obj 820 41 r \$1-s-ty-num;
#X obj 79 261 pack s f f f f f f f;
#X obj 180 615 pack s f f 0 0 f 0 0;
#X connect 0 0 15 0;
#X connect 1 0 14 0;
#X connect 2 0 16 0;
#X connect 3 0 17 0;
#X connect 4 0 18 0;
#X connect 6 0 22 0;
#X connect 7 0 8 0;
#X connect 8 0 5 0;
#X connect 8 0 19 0;
#X connect 9 0 25 0;
#X connect 10 0 7 0;
#X connect 11 0 29 0;
#X connect 12 0 20 0;
#X connect 13 0 10 0;
#X connect 13 1 9 0;
#X connect 14 0 11 0;
#X connect 14 1 39 1;
#X connect 15 0 11 0;
#X connect 15 1 39 2;
#X connect 16 0 11 0;
#X connect 16 1 39 3;
#X connect 17 0 11 0;
#X connect 17 1 39 4;
#X connect 18 0 11 0;
#X connect 18 1 39 5;
#X connect 20 0 13 0;
#X connect 20 1 21 0;
#X connect 21 0 5 0;
#X connect 22 0 23 0;
#X connect 22 1 5 0;
#X connect 24 0 40 0;
#X connect 25 0 7 0;
#X connect 26 0 40 5;
#X connect 27 0 40 1;
#X connect 28 0 40 2;
#X connect 29 0 39 0;
#X connect 30 0 31 0;
#X connect 31 0 34 0;
#X connect 32 0 33 0;
#X connect 33 0 24 0;
#X connect 34 0 11 0;
#X connect 34 1 29 1;
#X connect 35 0 11 0;
#X connect 35 1 39 6;
#X connect 36 0 35 0;
#X connect 37 0 11 0;
#X connect 37 1 39 7;
#X connect 38 0 37 0;
#X connect 39 0 6 0;
#X connect 40 0 6 0;
#X restore 1085 232 pd send;
#X obj 948 434 delay 1000;
#X obj 797 183 pack f f f f f f f;
#X obj 1014 122 t b f;
#X obj 1014 91 r \$1-s-tx-num;
#X obj 1059 141 t b f;
#X obj 1060 111 r \$1-s-ty-num;
#X msg 797 209 set \$1 \$2 \$3 \$4 \$5 \$6 \$7;
#X obj 960 582 unpack f f f f f f f;
#X obj 1074 611 s \$1-r-tx-num;
#X obj 1097 637 s \$1-r-ty-num;
#X obj 27 96 nbx 5 14 -100 100 0 0 \$1-s-tx-num \$1-r-tx-num empty
0 -8 0 10 -262144 -1 -1 10 256;
#X obj 27 114 nbx 5 14 -100 100 0 0 \$1-s-ty-num \$1-r-ty-num empty
0 -8 0 10 -262144 -1 -1 -4 256;
#X text 81 93 %tx;
#X text 81 111 %ty;
#X connect 12 0 18 0;
#X connect 13 0 12 1;
#X connect 14 0 13 0;
#X connect 14 1 19 0;
#X connect 14 2 15 0;
#X connect 15 0 12 1;
#X connect 16 0 14 0;
#X connect 17 0 12 0;
#X connect 20 0 27 0;
#X connect 21 0 20 1;
#X connect 22 0 21 0;
#X connect 22 1 26 0;
#X connect 22 2 23 0;
#X connect 23 0 20 1;
#X connect 24 0 22 0;
#X connect 25 0 20 0;
#X connect 28 0 39 0;
#X connect 29 0 28 1;
#X connect 30 0 29 0;
#X connect 30 1 37 0;
#X connect 30 2 31 0;
#X connect 31 0 28 1;
#X connect 32 0 42 0;
#X connect 33 0 32 1;
#X connect 34 0 33 0;
#X connect 34 1 41 0;
#X connect 34 2 35 0;
#X connect 35 0 32 1;
#X connect 36 0 30 0;
#X connect 38 0 28 0;
#X connect 40 0 34 0;
#X connect 43 0 32 0;
#X connect 44 0 50 0;
#X connect 45 0 86 0;
#X connect 46 0 49 0;
#X connect 47 0 48 0;
#X connect 48 0 86 0;
#X connect 48 1 86 3;
#X connect 49 0 86 0;
#X connect 49 1 86 2;
#X connect 50 0 86 0;
#X connect 50 1 86 1;
#X connect 51 0 54 0;
#X connect 51 1 52 0;
#X connect 53 0 52 0;
#X connect 54 0 53 0;
#X connect 55 0 56 0;
#X connect 56 0 92 0;
#X connect 57 0 55 0;
#X connect 58 0 56 0;
#X connect 58 1 59 0;
#X connect 58 2 57 0;
#X connect 59 0 56 0;
#X connect 64 0 85 0;
#X connect 68 0 72 0;
#X connect 69 0 68 1;
#X connect 70 0 69 0;
#X connect 70 1 73 0;
#X connect 70 2 75 0;
#X connect 71 0 70 0;
#X connect 74 0 68 0;
#X connect 75 0 68 1;
#X connect 76 0 83 0;
#X connect 77 0 86 0;
#X connect 77 1 86 4;
#X connect 79 0 80 0;
#X connect 79 1 81 0;
#X connect 80 0 81 0;
#X connect 82 0 77 0;
#X connect 83 0 79 0;
#X connect 85 0 58 0;
#X connect 86 0 91 0;
#X connect 87 0 86 0;
#X connect 87 1 86 5;
#X connect 88 0 87 0;
#X connect 89 0 86 0;
#X connect 89 1 86 6;
#X connect 90 0 89 0;
#X connect 91 0 51 0;
#X connect 92 0 60 0;
#X connect 92 1 61 0;
#X connect 92 2 62 0;
#X connect 92 3 63 0;
#X connect 92 4 78 0;
#X connect 92 5 93 0;
#X connect 92 6 94 0;
#X coords 0 -1 1 1 180 190 1 0 0;
