#N canvas 95 71 1202 639 12;
#X declare -lib Gem;
#X obj 188 426 control 1;
#X obj 56 213 control 2;
#X obj 409 14 control 3;
#X obj 301 223 control 4;
#X obj 1166 87 tgl 15 1 debug empty empty 17 7 0 10 -262144 -1 -1 0
1;
#X text 1122 84 debug;
#X text 1053 109 total TVs;
#X text 1026 133 total inchesX;
#X text 1027 159 total inchesY;
#X obj 1127 112 nbx 5 14 0 16 0 1 totalTVs empty empty 0 -8 0 10 -262144
-1 -1 12 256;
#X obj 1127 137 nbx 5 14 0 500 0 1 totalXInches empty empty 0 -8 0
10 -262144 -1 -1 80 256;
#X obj 1127 162 nbx 5 14 0 500 0 1 totalYInches empty empty 0 -8 0
10 -262144 -1 -1 60 256;
#N canvas 175 60 1190 672 videos 0;
#X msg 173 311 horse.mp4;
#X obj 181 429 t b a;
#X obj 226 519 s fileName;
#X obj 116 499 s fileType;
#X msg 117 470 video;
#X floatatom 118 35 5 0 0 0 - frameNum -, f 5;
#X text 115 15 frame;
#X obj 1000 180 s frameNum;
#X obj 226 487 symbol;
#X obj 3 19 vradio 15 1 0 9 s-vidToPlay empty empty 0 -8 0 10 -262144
-1 -1 0;
#X text 23 31 horse;
#X obj 598 287 soundfiler;
#X obj 685 500 tabread4~ audioBuffer;
#X obj 617 440 pack;
#X obj 632 365 / 44.1;
#X obj 636 614 dac~;
#X obj 590 327 t f f;
#X msg 559 379 stop;
#X obj 624 480 line~;
#X obj 528 487 line;
#X obj 469 536 s currentSample;
#X msg 870 513 dimen 640 480 \, create \, 1;
#X obj 870 549 gemwin;
#X obj 848 113 gemhead;
#X obj 848 141 pix_film;
#X obj 874 170 unpack f f f;
#X obj 908 56 *;
#X obj 851 342 pix_texture;
#X obj 851 384 rectangle 5.3333 4;
#X obj 901 227 r numSamples;
#X obj 665 326 s numSamples;
#X obj 908 25 r currentSample;
#X msg 777 93 open \$1;
#X obj 900 256 t b f;
#X obj 897 286 /;
#X msg 485 399 0;
#X obj 681 400 delay;
#X msg 697 449 0;
#X obj 908 112 int;
#X obj 908 84 + 0.5;
#X msg 698 366 stop;
#X obj 777 62 r fileName;
#X obj 119 203 r s-vidToPlay;
#X obj 602 42 r s-vidToPlay;
#X obj 679 233 t a b b;
#X msg 54 309 commercials.mp4;
#X msg 568 163 commercials.wav;
#X text 23 15 commercials;
#X obj 679 210 symbol;
#X msg 698 179 horse.wav;
#X obj 169 5 table audioBuffer;
#X msg 1057 512 0 \, destroy;
#X obj 602 70 int;
#X obj 733 425 t b b;
#X msg 420 51 \; pd dsp 1;
#X obj 421 5 loadbang;
#X text 22 46 coarse;
#X text 23 61 medium;
#X text 22 77 fine;
#X msg 250 312 coarse.mp4;
#X msg 282 340 medium.mp4;
#X msg 294 375 fine.mp4;
#X msg 681 146 coarse.wav;
#X msg 374 312 aquarium.mp4;
#X msg 376 338 fire.mp4;
#X msg 376 364 beach.mp4;
#X text 22 90 aquarium;
#X text 23 105 fire;
#X text 22 121 beach;
#X msg 474 111 aquarium.wav;
#X msg 476 137 fire.wav;
#X msg 476 163 beach.wav;
#X msg 598 262 read -resize -maxsize 1e+09 \$1 audioBuffer;
#X text 23 138 head;
#X obj 117 234 select 0 1 2 3 4 5 6 7;
#X msg 378 389 head.mp4;
#X obj 602 98 select 0 1 2 3 4 5 6 7;
#X floatatom 781 444 5 0 0 0 - - -, f 5;
#X obj 683 531 lop~ 50;
#X obj 684 554 lop~ 50;
#X obj 639 585 *~ 3;
#X connect 0 0 1 0;
#X connect 1 0 4 0;
#X connect 1 1 8 0;
#X connect 4 0 3 0;
#X connect 8 0 2 0;
#X connect 11 0 16 0;
#X connect 12 0 78 0;
#X connect 13 0 18 0;
#X connect 13 0 19 0;
#X connect 14 0 13 1;
#X connect 14 0 36 0;
#X connect 16 0 13 0;
#X connect 16 1 14 0;
#X connect 16 1 30 0;
#X connect 17 0 18 0;
#X connect 17 0 19 0;
#X connect 18 0 12 0;
#X connect 19 0 20 0;
#X connect 21 0 22 0;
#X connect 23 0 24 0;
#X connect 24 0 27 0;
#X connect 24 1 25 0;
#X connect 25 0 34 0;
#X connect 26 0 39 0;
#X connect 27 0 28 0;
#X connect 29 0 33 0;
#X connect 31 0 26 0;
#X connect 32 0 24 0;
#X connect 33 0 34 0;
#X connect 33 1 34 1;
#X connect 34 0 26 1;
#X connect 35 0 19 0;
#X connect 35 0 18 0;
#X connect 36 0 53 0;
#X connect 37 0 18 0;
#X connect 37 0 19 0;
#X connect 38 0 24 1;
#X connect 38 0 7 0;
#X connect 39 0 38 0;
#X connect 40 0 36 0;
#X connect 41 0 32 0;
#X connect 42 0 74 0;
#X connect 43 0 52 0;
#X connect 44 0 72 0;
#X connect 44 1 37 0;
#X connect 44 2 40 0;
#X connect 45 0 1 0;
#X connect 46 0 48 0;
#X connect 48 0 44 0;
#X connect 49 0 48 0;
#X connect 51 0 22 0;
#X connect 52 0 76 0;
#X connect 53 0 52 0;
#X connect 53 1 37 0;
#X connect 55 0 54 0;
#X connect 59 0 1 0;
#X connect 60 0 1 0;
#X connect 61 0 1 0;
#X connect 62 0 48 0;
#X connect 63 0 1 0;
#X connect 64 0 1 0;
#X connect 65 0 1 0;
#X connect 69 0 48 0;
#X connect 70 0 48 0;
#X connect 71 0 48 0;
#X connect 72 0 11 0;
#X connect 74 0 45 0;
#X connect 74 1 0 0;
#X connect 74 2 59 0;
#X connect 74 3 60 0;
#X connect 74 4 61 0;
#X connect 74 5 63 0;
#X connect 74 6 64 0;
#X connect 74 7 65 0;
#X connect 74 8 75 0;
#X connect 75 0 1 0;
#X connect 76 0 46 0;
#X connect 76 1 49 0;
#X connect 76 2 62 0;
#X connect 76 3 62 0;
#X connect 76 4 62 0;
#X connect 76 5 69 0;
#X connect 76 6 70 0;
#X connect 76 7 71 0;
#X connect 76 8 62 0;
#X connect 77 0 78 1;
#X connect 77 0 79 1;
#X connect 78 0 79 0;
#X connect 79 0 80 0;
#X connect 80 0 15 0;
#X connect 80 0 15 1;
#X coords 0 -1 1 1 160 160 1 0 0;
#X restore 1037 190 pd videos;
#X obj 1167 63 tgl 15 0 s-all-on-all r-all-on-all empty 17 7 0 10 -262144
-1 -1 0 1;
#X text 1060 61 all on all TVs;
#N canvas 312 60 1053 672 guts 0;
#X text 693 17 send to all machines;
#N canvas 993 382 801 547 sendin 0;
#X obj 120 5 r totalTVs;
#X obj 34 171 int 1;
#X obj 23 216 until;
#X obj 57 126 t b b;
#X msg 86 175 1;
#X obj 39 254 int 1;
#X obj 83 253 + 1;
#X msg 85 7 4;
#X obj 10 28 bng 15 250 50 0 empty empty empty 17 7 0 10 -262144 -1
-1;
#X obj 36 301 pack f f;
#X obj 203 6 r totalXInches;
#X obj 122 40 t b f;
#X obj 204 35 t b f;
#X obj 450 5 r totalTVs;
#X obj 364 171 int 1;
#X obj 353 216 until;
#X obj 387 126 t b b;
#X msg 416 175 1;
#X obj 369 254 int 1;
#X obj 413 253 + 1;
#X msg 415 7 4;
#X obj 340 28 bng 15 250 50 0 empty empty empty 17 7 0 10 -262144 -1
-1;
#X obj 366 301 pack f f;
#X obj 452 40 t b f;
#X obj 534 35 t b f;
#X obj 533 6 r totalYInches;
#X msg 74 338 \; \$1-r-dimX-slider range 0.1 \$2;
#X msg 39 385 \; \$1-r-dimX-num range 0.1 \$2;
#X msg 71 428 \; \$1-r-offsetX-slider range 0.1 \$2;
#X msg 36 475 \; \$1-r-offsetX-num range 0.1 \$2;
#X msg 404 338 \; \$1-r-dimY-slider range 0.1 \$2;
#X msg 369 385 \; \$1-r-dimY-num range 0.1 \$2;
#X msg 351 428 \; \$1-r-offsetY-slider range 0.1 \$2;
#X msg 316 475 \; \$1-r-offsetY-num range 0.1 \$2;
#X connect 0 0 11 0;
#X connect 1 0 2 0;
#X connect 2 0 5 0;
#X connect 3 0 1 0;
#X connect 3 1 4 0;
#X connect 4 0 5 1;
#X connect 5 0 6 0;
#X connect 5 0 9 0;
#X connect 6 0 5 1;
#X connect 7 0 1 1;
#X connect 8 0 3 0;
#X connect 9 0 26 0;
#X connect 9 0 27 0;
#X connect 9 0 28 0;
#X connect 9 0 29 0;
#X connect 10 0 12 0;
#X connect 11 0 3 0;
#X connect 11 1 1 1;
#X connect 12 0 3 0;
#X connect 12 1 9 1;
#X connect 13 0 23 0;
#X connect 14 0 15 0;
#X connect 15 0 18 0;
#X connect 16 0 14 0;
#X connect 16 1 17 0;
#X connect 17 0 18 1;
#X connect 18 0 19 0;
#X connect 18 0 22 0;
#X connect 19 0 18 1;
#X connect 20 0 14 1;
#X connect 21 0 16 0;
#X connect 22 0 30 0;
#X connect 22 0 31 0;
#X connect 22 0 32 0;
#X connect 22 0 33 0;
#X connect 23 0 16 0;
#X connect 23 1 14 1;
#X connect 24 0 16 0;
#X connect 24 1 22 1;
#X connect 25 0 24 0;
#X restore 694 111 pd sendin;
#X obj 694 38 sendout totalXInches totalYInches 3002 0;
#X obj 694 62 sendout fileName fileType 3003 1;
#X obj 694 86 sendout frameNum dummy 3004 0;
#X obj 309 73 declare -lib Gem;
#X restore 1123 6 pd guts;
#X obj 778 216 control 5;
#X obj 556 224 control 6;
#X obj 676 426 control 7;
#X obj 810 10 control 8;
#X obj 9 9 control 9;
#X obj 412 426 control 10;
#X obj 206 12 control 11;
#X obj 606 13 control 12;
