#N canvas 684 104 1236 639 12;
#X declare -lib Gem;
#X obj 188 426 control 1;
#X obj 56 213 control 2;
#X obj 409 14 control 3;
#X obj 301 223 control 4;
#X obj 1166 87 tgl 15 1 debug empty empty 17 7 0 10 -262144 -1 -1 1
1;
#X text 1122 84 debug;
#X text 1053 109 total TVs;
#X text 1026 133 total inchesX;
#X text 1027 159 total inchesY;
#X obj 1127 112 nbx 5 14 0 16 0 1 totalTVs empty empty 0 -8 0 10 -262144
-1 -1 12 256;
#X obj 1127 137 nbx 5 14 0 500 0 1 totalXInches empty empty 0 -8 0
10 -262144 -1 -1 80 256;
#X obj 1127 162 nbx 5 14 0 500 0 1 totalYInches empty empty 0 -8 0
10 -262144 -1 -1 60 256;
#N canvas 568 1143 1280 961 videos 0;
#X floatatom 103 54 7 0 0 0 - frameNum -;
#X text 115 34 frame;
#X obj 1000 220 s frameNum;
#X obj 3 38 vradio 15 1 0 14 s-vidToPlay r-vidToPlay empty 0 -8 0 10
-262144 -1 -1 0;
#X text 23 50 horse;
#X obj 598 327 soundfiler;
#X obj 615 748 pack;
#X obj 630 673 / 44.1;
#X msg 557 687 stop;
#X obj 467 818 line;
#X obj 467 915 s currentSample;
#X msg 870 553 dimen 640 480 \, create \, 1;
#X obj 870 589 gemwin;
#X obj 848 140 gemhead;
#X obj 848 181 pix_film;
#X obj 874 210 unpack f f f;
#X obj 908 96 *;
#X obj 851 382 pix_texture;
#X obj 851 424 rectangle 5.3333 4;
#X obj 901 267 r numSamples;
#X obj 646 388 s numSamples;
#X obj 908 65 r currentSample;
#X msg 777 133 open \$1;
#X obj 900 296 t b f;
#X obj 897 326 /;
#X msg 483 707 0;
#X obj 679 708 delay;
#X msg 742 760 0;
#X obj 908 152 int;
#X obj 908 124 + 0.5;
#X msg 696 674 stop;
#X obj 731 69 r fileName;
#X obj 553 44 r s-vidToPlay;
#X obj 679 273 t a b b;
#X text 23 34 commercials;
#X obj 169 45 table audioBuffer;
#X msg 1057 552 0 \, destroy;
#X obj 536 194 int;
#X obj 679 735 t b b;
#X msg 381 157 \; pd dsp 1;
#X obj 421 45 loadbang;
#X text 22 215 medium;
#X text 20 231 fine;
#X text 22 81 fire;
#X text 21 97 beach;
#X msg 598 302 read -resize -maxsize 1e+09 \$1 audioBuffer;
#X obj 238 196 s s-vidToPlay;
#X msg 236 163 0;
#X obj 211 81 loadbang;
#X obj 621 821 vline~;
#X obj 394 102 delay 500;
#X obj 222 123 delay 5000;
#X obj 473 503 random;
#X obj 411 472 r numSamples;
#N canvas 286 175 830 463 playMe 0;
#X floatatom 148 92 5 0 0 0 - - -;
#X obj 83 90 lop~ 50;
#X obj 84 113 lop~ 50;
#X obj 70 145 *~ 3;
#X obj 116 60 tabread4~ audioBuffer;
#X obj 117 30 inlet~;
#X msg 225 124 \$1 100;
#X obj 218 155 line~;
#X obj 154 184 *~;
#X obj 518 45 r volDown;
#X obj 593 31 r volUp;
#X obj 520 70 t b b;
#X obj 591 69 t b b;
#X obj 519 238 spigot 0;
#X obj 600 236 spigot 0;
#X msg 537 108 1;
#X msg 568 107 0;
#X msg 620 105 1;
#X msg 651 104 0;
#X obj 537 357 f;
#X floatatom 533 413 5 0 0 0 - - -;
#X msg 294 83 1;
#X obj 293 49 loadbang;
#X obj 510 304 - 0.1;
#X obj 571 305 + 0.1;
#X obj 603 264 moses 0.91;
#X obj 519 264 moses 0.05;
#X obj 616 392 s channel;
#X obj 413 365 * 10;
#X obj 411 398 + 0.5;
#X obj 409 425 int;
#X obj 470 412 / 10;
#X obj 571 169 f 1;
#X obj 613 351 + 10;
#X msg 435 279 bang;
#X msg 655 299 bang;
#X text 653 340 comment;
#X obj 155 219 s~ sndMainAudio;
#X connect 0 0 1 1;
#X connect 0 0 2 1;
#X connect 1 0 2 0;
#X connect 1 0 8 0;
#X connect 2 0 3 0;
#X connect 4 0 1 0;
#X connect 5 0 4 0;
#X connect 6 0 7 0;
#X connect 7 0 8 1;
#X connect 8 0 37 0;
#X connect 9 0 11 0;
#X connect 10 0 12 0;
#X connect 11 0 32 0;
#X connect 11 1 16 0;
#X connect 11 1 15 0;
#X connect 12 0 32 0;
#X connect 12 1 17 0;
#X connect 12 1 18 0;
#X connect 13 0 26 0;
#X connect 14 0 25 0;
#X connect 15 0 13 1;
#X connect 16 0 14 1;
#X connect 17 0 14 1;
#X connect 18 0 13 1;
#X connect 19 0 28 0;
#X connect 21 0 6 0;
#X connect 22 0 21 0;
#X connect 23 0 19 0;
#X connect 23 0 32 1;
#X connect 24 0 19 0;
#X connect 24 0 32 1;
#X connect 25 0 24 0;
#X connect 25 1 35 0;
#X connect 26 0 34 0;
#X connect 26 1 23 0;
#X connect 28 0 29 0;
#X connect 29 0 30 0;
#X connect 30 0 31 0;
#X connect 31 0 20 0;
#X connect 31 0 6 0;
#X connect 31 0 33 0;
#X connect 32 0 14 0;
#X connect 32 0 13 0;
#X connect 33 0 27 0;
#X connect 34 0 19 0;
#X connect 35 0 19 0;
#X restore 622 918 pd playMe;
#X obj 473 584 -;
#X obj 473 558 f;
#X obj 479 529 t b f f;
#X obj 473 609 t b f;
#X obj 473 418 spigot 0;
#X obj 598 354 t f f f;
#X obj 540 146 t b f b;
#X msg 526 389 1;
#X msg 493 389 0;
#X obj 522 473 t b f;
#X text 22 186 head;
#N canvas 1414 1443 487 625 videoList 0;
#X msg 136 109 horse.mp4;
#X obj 117 482 t b a;
#X obj 162 572 s fileName;
#X obj 52 552 s fileType;
#X msg 53 523 video;
#X obj 162 540 symbol;
#X obj 119 23 r s-vidToPlay;
#X msg 117 83 commercials.mp4;
#X msg 319 381 coarse.mp4;
#X msg 342 408 medium.mp4;
#X msg 359 443 fine.mp4;
#X msg 156 137 aquarium.mp4;
#X msg 173 162 fire.mp4;
#X msg 192 188 beach.mp4;
#X msg 304 353 head.mp4;
#X obj 38 22 s channel;
#X obj 117 54 select 0 1 2 3 4 5 6 7 8 9 10 11 12 13;
#X msg 210 223 cronk.mp4;
#X msg 229 249 land.mp4;
#X msg 250 277 shark.mp4;
#X msg 267 302 alan.mp4;
#X msg 286 328 help.mp4;
#X connect 0 0 1 0;
#X connect 1 0 4 0;
#X connect 1 1 5 0;
#X connect 4 0 3 0;
#X connect 5 0 2 0;
#X connect 6 0 15 0;
#X connect 6 0 16 0;
#X connect 7 0 1 0;
#X connect 8 0 1 0;
#X connect 9 0 1 0;
#X connect 10 0 1 0;
#X connect 11 0 1 0;
#X connect 12 0 1 0;
#X connect 13 0 1 0;
#X connect 14 0 1 0;
#X connect 16 0 7 0;
#X connect 16 1 0 0;
#X connect 16 2 11 0;
#X connect 16 3 12 0;
#X connect 16 4 13 0;
#X connect 16 5 17 0;
#X connect 16 6 18 0;
#X connect 16 7 19 0;
#X connect 16 8 20 0;
#X connect 16 9 21 0;
#X connect 16 10 14 0;
#X connect 16 11 8 0;
#X connect 16 12 9 0;
#X connect 16 13 10 0;
#X connect 17 0 1 0;
#X connect 18 0 1 0;
#X connect 19 0 1 0;
#X connect 20 0 1 0;
#X connect 21 0 1 0;
#X restore 146 677 pd videoList;
#N canvas 741 1448 557 620 audioList 0;
#X obj 117 16 inlet;
#X obj 117 514 outlet;
#X obj 117 54 select 0 1 2 3 4 5 6 7 8 9 10 11 12 13;
#X obj 117 482 symbol;
#X msg 117 83 commercials.wav;
#X msg 136 109 horse.wav;
#X msg 156 137 aquarium.wav;
#X msg 173 162 fire.wav;
#X msg 192 188 beach.wav;
#X msg 210 223 cronk.wav;
#X msg 229 249 land.wav;
#X msg 250 277 shark.wav;
#X msg 267 302 alan.wav;
#X msg 286 328 help.wav;
#X msg 304 353 head.wav;
#X msg 319 381 coarse.wav;
#X msg 342 408 medium.wav;
#X msg 359 443 fine.wav;
#X connect 0 0 2 0;
#X connect 2 0 4 0;
#X connect 2 1 5 0;
#X connect 2 2 6 0;
#X connect 2 3 7 0;
#X connect 2 4 8 0;
#X connect 2 5 9 0;
#X connect 2 6 10 0;
#X connect 2 7 11 0;
#X connect 2 8 12 0;
#X connect 2 9 13 0;
#X connect 2 10 14 0;
#X connect 2 11 15 0;
#X connect 2 12 16 0;
#X connect 2 13 17 0;
#X connect 3 0 1 0;
#X connect 4 0 3 0;
#X connect 5 0 3 0;
#X connect 6 0 3 0;
#X connect 7 0 3 0;
#X connect 8 0 3 0;
#X connect 9 0 3 0;
#X connect 10 0 3 0;
#X connect 11 0 3 0;
#X connect 12 0 3 0;
#X connect 13 0 3 0;
#X connect 14 0 3 0;
#X connect 15 0 3 0;
#X connect 16 0 3 0;
#X connect 17 0 3 0;
#X restore 648 196 pd audioList;
#X text 22 65 aquarium;
#X text 20 112 cronkite;
#X text 21 127 land;
#X text 20 140 shark;
#X text 21 154 alan;
#X text 22 169 help;
#X text 21 199 coarse;
#X obj 553 89 int;
#X obj 673 45 r cPlus;
#X obj 1125 144 r cMin;
#X obj 664 74 int;
#X msg 674 139 0;
#X obj 638 140 + 1;
#X obj 1123 180 int;
#X obj 1219 238 - 1;
#X msg 1159 243 9;
#X obj 1184 208 moses 1;
#X obj 655 97 moses 9;
#X obj 851 715 s r-vidToPlay;
#X msg 870 665 1;
#X msg 907 666 0;
#X obj 467 865 spigot 1;
#X obj 783 103 spigot 1;
#X obj 793 28 r playWarning;
#X obj 816 67 == 0;
#X obj 307 378 r changeChannel;
#X obj 266 438 s channel;
#X msg 376 420 bang;
#X obj 1171 292 s changeChannel;
#X obj 651 164 s changeChannel;
#X obj 661 14 r changeChannel;
#X obj 1137 109 r changeChannel;
#X connect 5 0 60 0;
#X connect 6 0 9 0;
#X connect 6 0 49 0;
#X connect 7 0 6 1;
#X connect 7 0 26 0;
#X connect 8 0 9 0;
#X connect 8 0 49 0;
#X connect 9 0 89 0;
#X connect 11 0 12 0;
#X connect 13 0 14 0;
#X connect 14 0 17 0;
#X connect 14 1 15 0;
#X connect 15 0 24 0;
#X connect 16 0 29 0;
#X connect 17 0 18 0;
#X connect 19 0 23 0;
#X connect 21 0 16 0;
#X connect 22 0 14 0;
#X connect 23 0 24 0;
#X connect 23 1 24 1;
#X connect 24 0 16 1;
#X connect 25 0 9 0;
#X connect 25 0 49 0;
#X connect 26 0 38 0;
#X connect 27 0 9 0;
#X connect 27 0 49 0;
#X connect 28 0 14 1;
#X connect 28 0 2 0;
#X connect 29 0 28 0;
#X connect 30 0 26 0;
#X connect 31 0 90 0;
#X connect 32 0 75 0;
#X connect 33 0 45 0;
#X connect 33 1 27 0;
#X connect 33 2 30 0;
#X connect 36 0 12 0;
#X connect 37 0 67 0;
#X connect 38 0 37 0;
#X connect 38 1 27 0;
#X connect 40 0 50 0;
#X connect 45 0 5 0;
#X connect 47 0 46 0;
#X connect 48 0 51 0;
#X connect 49 0 54 0;
#X connect 50 0 39 0;
#X connect 51 0 47 0;
#X connect 52 0 57 0;
#X connect 53 0 56 1;
#X connect 55 0 58 0;
#X connect 56 0 55 0;
#X connect 57 0 56 0;
#X connect 57 1 55 1;
#X connect 57 2 49 0;
#X connect 57 2 9 0;
#X connect 58 0 6 0;
#X connect 58 1 7 0;
#X connect 59 0 64 0;
#X connect 60 0 59 0;
#X connect 60 1 6 0;
#X connect 60 2 20 0;
#X connect 60 2 7 0;
#X connect 61 0 63 0;
#X connect 61 1 37 0;
#X connect 61 2 62 0;
#X connect 62 0 59 1;
#X connect 63 0 59 1;
#X connect 64 0 52 0;
#X connect 64 1 52 1;
#X connect 67 0 33 0;
#X connect 75 0 61 0;
#X connect 76 0 78 0;
#X connect 77 0 81 0;
#X connect 78 0 85 0;
#X connect 79 0 97 0;
#X connect 80 0 97 0;
#X connect 81 0 84 0;
#X connect 82 0 96 0;
#X connect 83 0 96 0;
#X connect 84 0 83 0;
#X connect 84 1 82 0;
#X connect 85 0 80 0;
#X connect 85 1 79 0;
#X connect 87 0 86 0;
#X connect 88 0 86 0;
#X connect 89 0 10 0;
#X connect 90 0 22 0;
#X connect 91 0 92 0;
#X connect 92 0 90 1;
#X connect 93 0 94 0;
#X connect 93 0 95 0;
#X connect 95 0 52 0;
#X connect 98 0 78 1;
#X connect 99 0 81 1;
#X coords 0 -1 1 1 160 260 1 0 0;
#X restore 1037 190 pd videos;
#X obj 1167 63 tgl 15 0 s-all-on-all r-all-on-all empty 17 7 0 10 -262144
-1 -1 0 1;
#X text 1060 61 all on all TVs;
#N canvas 931 273 459 166 guts 0;
#X text 133 17 send to all machines;
#N canvas 564 185 801 547 sendin 0;
#X obj 120 5 r totalTVs;
#X obj 34 171 int 1;
#X obj 23 216 until;
#X obj 57 126 t b b;
#X msg 86 175 1;
#X obj 39 254 int 1;
#X obj 83 253 + 1;
#X msg 85 7 4;
#X obj 10 28 bng 15 250 50 0 empty empty empty 17 7 0 10 -262144 -1
-1;
#X obj 36 301 pack f f;
#X obj 203 6 r totalXInches;
#X obj 122 40 t b f;
#X obj 204 35 t b f;
#X obj 450 5 r totalTVs;
#X obj 364 171 int 1;
#X obj 353 216 until;
#X obj 387 126 t b b;
#X msg 416 175 1;
#X obj 369 254 int 1;
#X obj 413 253 + 1;
#X msg 415 7 4;
#X obj 340 28 bng 15 250 50 0 empty empty empty 17 7 0 10 -262144 -1
-1;
#X obj 366 301 pack f f;
#X obj 452 40 t b f;
#X obj 534 35 t b f;
#X obj 533 6 r totalYInches;
#X msg 74 338 \; \$1-r-dimX-slider range 0.1 \$2;
#X msg 39 385 \; \$1-r-dimX-num range 0.1 \$2;
#X msg 71 428 \; \$1-r-offsetX-slider range 0.1 \$2;
#X msg 36 475 \; \$1-r-offsetX-num range 0.1 \$2;
#X msg 404 338 \; \$1-r-dimY-slider range 0.1 \$2;
#X msg 369 385 \; \$1-r-dimY-num range 0.1 \$2;
#X msg 351 428 \; \$1-r-offsetY-slider range 0.1 \$2;
#X msg 316 475 \; \$1-r-offsetY-num range 0.1 \$2;
#X connect 0 0 11 0;
#X connect 1 0 2 0;
#X connect 2 0 5 0;
#X connect 3 0 1 0;
#X connect 3 1 4 0;
#X connect 4 0 5 1;
#X connect 5 0 6 0;
#X connect 5 0 9 0;
#X connect 6 0 5 1;
#X connect 7 0 1 1;
#X connect 8 0 3 0;
#X connect 9 0 26 0;
#X connect 9 0 27 0;
#X connect 9 0 28 0;
#X connect 9 0 29 0;
#X connect 10 0 12 0;
#X connect 11 0 3 0;
#X connect 11 1 1 1;
#X connect 12 0 3 0;
#X connect 12 1 9 1;
#X connect 13 0 23 0;
#X connect 14 0 15 0;
#X connect 15 0 18 0;
#X connect 16 0 14 0;
#X connect 16 1 17 0;
#X connect 17 0 18 1;
#X connect 18 0 19 0;
#X connect 18 0 22 0;
#X connect 19 0 18 1;
#X connect 20 0 14 1;
#X connect 21 0 16 0;
#X connect 22 0 30 0;
#X connect 22 0 31 0;
#X connect 22 0 32 0;
#X connect 22 0 33 0;
#X connect 23 0 16 0;
#X connect 23 1 14 1;
#X connect 24 0 16 0;
#X connect 24 1 22 1;
#X connect 25 0 24 0;
#X restore 134 111 pd sendin;
#X obj 134 38 sendout totalXInches totalYInches 3002 0;
#X obj 134 62 sendout fileName fileType 3003 1;
#X obj 10 39 declare -lib Gem;
#X obj 134 86 sendout frameNum channel 3004 0;
#X restore 1123 6 pd guts;
#X obj 778 216 control 5;
#X obj 556 224 control 6;
#X obj 676 426 control 7;
#X obj 810 10 control 8;
#X obj 9 9 control 9;
#X obj 412 426 control 10;
#X obj 206 12 control 11;
#X obj 606 13 control 12;
#N canvas 249 63 504 456 comm 0;
#X obj 180 235 int;
#X obj 219 235 + 1;
#X obj 180 263 list;
#X obj 180 205 t b a;
#X obj 180 292 print Serial#;
#X obj 159 48 loadbang;
#X msg 100 135 close;
#X msg 291 111 info;
#X obj 354 200 route open;
#X obj 139 52 bng 15 250 50 0 empty empty empty 17 7 0 10 -262144 -1
-1;
#X obj 263 80 t b b;
#X obj 354 225 == 0;
#X obj 301 251 spigot 0;
#X obj 263 51 metro 1000;
#X obj 152 377 outlet;
#X obj 182 171 comport /dev/ttyUSB0 115200;
#X msg 182 142 devicename /dev/ttyUSB0 \, dtr 0 \, rts 0;
#X obj 152 341 spigot 0;
#X obj 205 317 pipe 2000;
#N canvas 491 224 811 751 processOutput 0;
#X obj 278 36 select 10 13;
#X obj 281 240 list;
#X obj 270 268 list;
#X obj 279 214 list prepend;
#X obj 310 162 t b b;
#X obj 271 294 bytes2any;
#X obj 294 348 list prepend symbol;
#X obj 294 375 list trim;
#X obj 683 451 list;
#X obj 683 475 list trim;
#X msg 683 425 bang;
#X obj 271 320 t b a a;
#X obj 333 248 select off au prg rcl lch ch+ ch- mute vol- vol+ sel
buy;
#X obj 294 483 list;
#X obj 294 455 t b;
#X obj 277 6 inlet;
#X obj 294 508 t b;
#X obj 277 611 s channel;
#X obj 294 558 int -1;
#X obj 294 585 select -1 -2;
#X msg 333 531 -2;
#X msg 372 532 -1;
#X msg 492 582 1;
#X msg 526 582 0;
#X obj 475 623 s r-all-on-all;
#X obj 310 124 spigot 0;
#X msg 321 89 1;
#X msg 278 90 0;
#X obj 278 64 t b b;
#X obj 321 63 t f b;
#X obj 529 543 delay 3000;
#X obj 626 481 s volUp;
#X obj 536 479 s volDown;
#X obj 518 368 s cPlus;
#X obj 583 368 s cMin;
#X obj 540 347 bng 15 250 50 0 empty empty empty 17 7 0 10 -262144
-1 -1;
#X obj 648 334 bng 15 250 50 0 empty empty empty 17 7 0 10 -262144
-1 -1;
#X obj 683 504 s changeChannel;
#X connect 0 0 28 0;
#X connect 0 1 28 0;
#X connect 0 2 29 0;
#X connect 1 0 2 1;
#X connect 1 0 3 1;
#X connect 2 0 5 0;
#X connect 3 0 1 0;
#X connect 4 0 1 1;
#X connect 4 0 3 1;
#X connect 4 1 2 0;
#X connect 5 0 11 0;
#X connect 6 0 7 0;
#X connect 7 0 12 0;
#X connect 8 0 9 0;
#X connect 9 0 37 0;
#X connect 10 0 8 0;
#X connect 11 0 8 1;
#X connect 11 0 13 1;
#X connect 11 1 6 0;
#X connect 11 2 8 1;
#X connect 11 2 13 1;
#X connect 12 0 14 0;
#X connect 12 1 14 0;
#X connect 12 2 14 0;
#X connect 12 3 22 0;
#X connect 12 3 30 0;
#X connect 12 4 14 0;
#X connect 12 5 33 0;
#X connect 12 6 34 0;
#X connect 12 7 14 0;
#X connect 12 8 32 0;
#X connect 12 9 31 0;
#X connect 12 10 14 0;
#X connect 12 11 14 0;
#X connect 12 12 10 0;
#X connect 13 0 16 0;
#X connect 14 0 13 0;
#X connect 15 0 0 0;
#X connect 16 0 18 0;
#X connect 18 0 17 0;
#X connect 18 0 19 0;
#X connect 19 0 20 0;
#X connect 19 1 21 0;
#X connect 20 0 18 1;
#X connect 21 0 18 1;
#X connect 22 0 24 0;
#X connect 23 0 24 0;
#X connect 25 0 4 0;
#X connect 26 0 25 1;
#X connect 27 0 25 1;
#X connect 28 0 27 0;
#X connect 28 1 25 0;
#X connect 29 0 3 0;
#X connect 29 1 26 0;
#X connect 30 0 23 0;
#X connect 35 0 33 0;
#X connect 36 0 34 0;
#X restore 268 402 pd processOutput;
#X obj 263 -22 r debug;
#X obj 263 2 select 1;
#X msg 262 27 stop;
#X connect 0 0 1 0;
#X connect 0 0 2 0;
#X connect 1 0 0 1;
#X connect 2 0 4 0;
#X connect 3 0 0 0;
#X connect 3 1 2 1;
#X connect 5 0 13 0;
#X connect 6 0 15 0;
#X connect 7 0 15 0;
#X connect 8 0 11 0;
#X connect 8 0 18 0;
#X connect 9 0 13 0;
#X connect 10 0 12 0;
#X connect 10 1 7 0;
#X connect 11 0 12 1;
#X connect 12 0 16 0;
#X connect 13 0 10 0;
#X connect 15 0 3 0;
#X connect 15 0 17 0;
#X connect 15 1 8 0;
#X connect 16 0 15 0;
#X connect 17 0 14 0;
#X connect 17 0 19 0;
#X connect 18 0 17 1;
#X connect 20 0 21 0;
#X connect 21 0 22 0;
#X connect 22 0 13 0;
#X restore 1044 459 pd comm;
#N canvas 394 284 878 533 warningVideo 0;
#X obj 487 96 soundfiler;
#X obj 162 22 netreceive -u 4000;
#X obj 208 179 s fileName;
#X obj 98 164 s fileType;
#X msg 99 135 video;
#X obj 208 115 symbol;
#X obj 24 168 s channel;
#X obj 24 139 + 20;
#X obj 208 147 t a a;
#X obj 488 14 table warnAudBuff;
#X obj 487 41 loadbang;
#X obj 311 285 vline~;
#X obj 311 317 tabread4~ warnAudBuff;
#X msg 388 368 0;
#X msg 436 350 1;
#X obj 310 437 s~ sndWarnAudio;
#X obj 498 411 s playWarning;
#X obj 389 341 delay;
#X obj 311 142 f;
#X obj 329 117 r warnAudNoOfSamples;
#X obj 334 196 / 11.025;
#X obj 311 228 pack;
#X obj 487 126 s warnAudNoOfSamples;
#X obj 467 44 bng 15 250 50 0 empty empty empty 17 7 0 10 -262144 -1
-1;
#X obj 311 169 t f f b;
#X msg 487 68 read -resize -maxsize 1e+09 warning.wav warnAudBuff;
#X msg 311 256 0 \, \$1 \$2;
#X obj 381 502 s channel;
#X msg 380 467 30;
#X obj 389 410 s r-all-on-all;
#X obj 161 53 t f b f f b;
#X obj 208 87 makefilename /tmp/warning%d.mp4;
#X msg 111 21 0;
#X msg 76 20 1;
#X connect 0 0 22 0;
#X connect 1 0 30 0;
#X connect 4 0 3 0;
#X connect 5 0 8 0;
#X connect 7 0 6 0;
#X connect 8 0 2 0;
#X connect 10 0 25 0;
#X connect 11 0 12 0;
#X connect 12 0 15 0;
#X connect 13 0 16 0;
#X connect 13 0 28 0;
#X connect 13 0 29 0;
#X connect 14 0 16 0;
#X connect 14 0 29 0;
#X connect 17 0 13 0;
#X connect 18 0 24 0;
#X connect 19 0 18 1;
#X connect 20 0 21 1;
#X connect 20 0 17 0;
#X connect 21 0 26 0;
#X connect 23 0 25 0;
#X connect 24 0 21 0;
#X connect 24 1 20 0;
#X connect 24 2 14 0;
#X connect 25 0 0 0;
#X connect 26 0 11 0;
#X connect 28 0 27 0;
#X connect 30 1 4 0;
#X connect 30 2 31 0;
#X connect 30 3 7 0;
#X connect 30 4 18 0;
#X connect 31 0 5 0;
#X connect 32 0 30 0;
#X connect 33 0 30 0;
#X restore 1044 484 pd warningVideo;
#N canvas 1007 437 450 488 audVidChooser 0;
#X obj 200 122 r playWarning;
#X obj 200 158 == 0;
#X obj 235 341 +~;
#X obj 234 375 dac~;
#X obj 295 229 r~ sndWarnAudio;
#X obj 182 230 r~ sndMainAudio;
#X msg 200 182 \$1 50;
#X msg 311 183 \$1 50;
#X obj 313 207 vline~;
#X obj 200 208 vline~;
#X obj 183 255 *~;
#X obj 296 256 *~;
#X msg 137 148 1;
#X msg 311 156 0;
#X obj 311 129 loadbang;
#X obj 137 123 loadbang;
#X obj 201 301 *~ 5;
#X connect 0 0 1 0;
#X connect 0 0 7 0;
#X connect 1 0 6 0;
#X connect 2 0 3 0;
#X connect 2 0 3 1;
#X connect 4 0 11 0;
#X connect 5 0 10 0;
#X connect 6 0 9 0;
#X connect 7 0 8 0;
#X connect 8 0 11 1;
#X connect 9 0 10 1;
#X connect 10 0 16 0;
#X connect 11 0 2 1;
#X connect 12 0 6 0;
#X connect 13 0 7 0;
#X connect 14 0 13 0;
#X connect 15 0 12 0;
#X connect 16 0 2 0;
#X restore 1044 510 pd audVidChooser;
