#N canvas 1016 139 904 838 12;
#X declare -lib Gem;
#X obj 553 635 pix_texture;
#N canvas 191 265 1028 397 calcDimAndOffset 0;
#X obj 218 189 int;
#X obj 218 228 *;
#X obj 218 258 /;
#X obj 250 188 r offsetXInches;
#X obj 256 229 r totalXInches;
#X obj 68 189 int;
#X obj 68 228 *;
#X obj 68 258 /;
#X obj 106 229 r totalXInches;
#X obj 100 188 r sizeXInches;
#X obj 65 293 s dimX;
#X obj 245 291 s offsetX;
#X obj 699 188 int;
#X obj 699 227 *;
#X obj 699 257 /;
#X obj 549 188 int;
#X obj 549 227 *;
#X obj 549 257 /;
#X obj 731 187 r offsetYInches;
#X obj 581 187 r sizeYInches;
#X obj 587 228 r totalYInches;
#X obj 737 228 r totalYInches;
#X obj 546 292 s dimY;
#X obj 726 290 s offsetY;
#X obj 421 20 r updateParams;
#X obj 86 158 r vidXDim;
#X obj 237 158 r vidXDim;
#X obj 567 157 r vidYDim;
#X obj 717 157 r vidYDim;
#X floatatom 27 189 5 0 0 0 - - -;
#X floatatom 27 227 5 0 0 0 - - -;
#X floatatom 24 256 5 0 0 0 - - -;
#X obj 195 103 t b b b;
#X obj 368 189 int;
#X obj 396 352 s transX;
#X obj 676 94 t b b b;
#X obj 853 186 int;
#X obj 854 353 s transY;
#X obj 369 319 / 100;
#X obj 386 157 r transXPercent;
#X obj 871 155 r transYPercent;
#X obj 854 325 / 100;
#X obj 444 213 r scale;
#X obj 396 290 * 2;
#X obj 369 211 * 5.33333;
#X obj 854 225 * 4;
#X obj 890 229 r scale;
#X obj 854 290 * 2;
#X floatatom 458 319 5 0 0 0 - - -;
#X obj 427 258 * 2;
#X obj 899 260 * 2;
#X connect 0 0 1 0;
#X connect 1 0 2 0;
#X connect 2 0 11 0;
#X connect 3 0 1 1;
#X connect 4 0 2 1;
#X connect 5 0 6 0;
#X connect 5 0 29 0;
#X connect 6 0 7 0;
#X connect 6 0 30 0;
#X connect 7 0 10 0;
#X connect 7 0 31 0;
#X connect 8 0 7 1;
#X connect 9 0 6 1;
#X connect 12 0 13 0;
#X connect 13 0 14 0;
#X connect 14 0 23 0;
#X connect 15 0 16 0;
#X connect 16 0 17 0;
#X connect 17 0 22 0;
#X connect 18 0 13 1;
#X connect 19 0 16 1;
#X connect 20 0 17 1;
#X connect 21 0 14 1;
#X connect 24 0 32 0;
#X connect 24 0 35 0;
#X connect 25 0 5 1;
#X connect 26 0 0 1;
#X connect 27 0 15 1;
#X connect 28 0 12 1;
#X connect 32 0 5 0;
#X connect 32 1 0 0;
#X connect 32 2 33 0;
#X connect 33 0 44 0;
#X connect 35 0 15 0;
#X connect 35 1 12 0;
#X connect 35 2 36 0;
#X connect 36 0 45 0;
#X connect 38 0 34 0;
#X connect 39 0 33 1;
#X connect 40 0 36 1;
#X connect 41 0 37 0;
#X connect 42 0 49 0;
#X connect 43 0 38 0;
#X connect 44 0 43 0;
#X connect 45 0 47 0;
#X connect 46 0 50 0;
#X connect 47 0 41 0;
#X connect 49 0 43 1;
#X connect 50 0 47 1;
#X restore 673 49 pd calcDimAndOffset;
#N canvas 657 178 676 213 gemwinMagic 0;
#X msg 206 69 0 \, destroy;
#X obj 38 9 loadbang;
#X obj 15 106 gemwin 60;
#X msg 38 36 title Gem \, dimen 640 480 \, border 1 \, cursor 0 \,
create \, 1;
#X connect 0 0 2 0;
#X connect 1 0 3 0;
#X connect 3 0 2 0;
#X restore 321 114 pd gemwinMagic;
#N canvas 447 289 852 545 init 0;
#X obj 26 31 r totalXYInches;
#X obj 303 33 r offsetXYInches;
#X obj 560 30 r sizeXYInches;
#X obj 303 59 unpack f f;
#X obj 26 58 unpack f f;
#X obj 560 58 unpack f f;
#X obj 59 109 s totalXInches;
#X obj 136 85 s totalYInches;
#X obj 335 120 s offsetXInches;
#X obj 422 88 s offsetYInches;
#X obj 592 109 s sizeXInches;
#X obj 660 86 s sizeYInches;
#X obj 560 82 t b a;
#X obj 303 82 t b a;
#X obj 27 84 t b a;
#X obj 332 182 s updateParams;
#X obj 96 378 r vidXDim;
#X obj 172 378 r vidYDim;
#X obj 96 404 t b a;
#X obj 127 430 s vidXDimDo;
#X obj 173 404 t b a;
#X obj 211 430 s vidYDimDo;
#X obj 125 462 s updateParams;
#X connect 0 0 4 0;
#X connect 1 0 3 0;
#X connect 2 0 5 0;
#X connect 3 0 13 0;
#X connect 3 1 9 0;
#X connect 4 0 14 0;
#X connect 4 1 7 0;
#X connect 5 0 12 0;
#X connect 5 1 11 0;
#X connect 12 0 15 0;
#X connect 12 1 10 0;
#X connect 13 0 15 0;
#X connect 13 1 8 0;
#X connect 14 0 15 0;
#X connect 14 1 6 0;
#X connect 16 0 18 0;
#X connect 17 0 20 0;
#X connect 18 0 22 0;
#X connect 18 1 19 0;
#X connect 20 0 22 0;
#X connect 20 1 21 0;
#X restore 673 23 pd init;
#X obj 320 23 r dimX;
#X obj 457 23 r offsetX;
#X obj 371 22 r dimY;
#X obj 561 24 r offsetY;
#X obj 320 81 print dimX;
#X obj 457 56 print offsetX;
#X obj 371 56 print dimY;
#X obj 561 55 print offsetY;
#X obj 553 608 pix_crop;
#X obj 566 499 r dimX;
#X obj 590 558 r offsetX;
#X obj 624 497 r dimY;
#X obj 612 582 r offsetY;
#X obj 59 341 netreceive -u 3000;
#X obj 28 407 t b a;
#X obj 78 474 s sizeYInches;
#X obj 112 501 s offsetXInches;
#X obj 127 419 s offsetYInches;
#X obj 28 527 s updateParams;
#X obj 49 447 s sizeXInches;
#X obj 20 213 unpack f f;
#X obj 20 239 t b a;
#X obj 20 300 s updateParams;
#X obj 20 183 netreceive -u 3002;
#X obj 87 243 s totalYInches;
#X obj 52 275 s totalXInches;
#X obj 553 778 rectangle 5.33 4;
#X obj 607 749 * 1.33333;
#N canvas 1 63 450 250 (subpatch) 0;
#X array scale 91 float 5;
#A 0 1 1.025 1.05 1.07 1.09 1.1275 1.135 1.1525 1.1925 1.1975 1.215
1.24 1.265 1.2775 1.2925 1.31 1.3275 1.345 1.3625 1.375 1.39 1.4125
1.425 1.4425 1.4575 1.465 1.4825 1.49 1.51 1.5225 1.5275 1.545 1.555
1.56 1.58 1.5825 1.5925 1.60025 1.60775 1.6145 1.6215 1.6265 1.6335
1.63825 1.644 1.65075 1.65275 1.658 1.65825 1.66225 1.66225 1.66225
1.66225 1.66225 1.66225 1.66225 1.66225 1.66225 1.65675 1.65525 1.65525
1.65175 1.647 1.64125 1.64125 1.632 1.6225 1.61875 1.6135 1.60375 1.59225
1.5875 1.57925 1.57175 1.55975 1.5475 1.53575 1.526 1.5145 1.4995 1.4905
1.4775 1.4595 1.448 1.43475 1.416 1.40125 1.387 1.3725 1.33725 1.33725
;
#X coords 0 1.75 90 1 200 140 1 0 0;
#X restore 100 20 graph;
#X obj 566 526 * 1;
#X obj 624 526 * 1;
#X floatatom 715 267 5 0 0 0 - - -;
#X obj 590 469 t b b f;
#X obj 667 714 * 4;
#X obj 716 403 abs;
#X obj 716 300 moses 90;
#X obj 737 335 * -1;
#X obj 728 363 + 180;
#X obj 670 431 tabread4 scale;
#X obj 555 431 rotateXYZ 0 0 0;
#X obj 554 190 pix_info ------;
#X obj 560 270 s vidXDim;
#X obj 629 270 s vidYDim;
#X obj 568 215 change;
#X obj 630 216 change;
#X obj 625 245 t b f;
#X obj 568 240 t b f;
#X obj 568 300 s updateParams;
#X obj 150 397 s rotDeg;
#X obj 715 237 r rotDeg;
#X obj 616 147 bng 15 250 50 0 empty empty empty 17 7 0 10 -262144
-1 -1;
#N canvas 920 1386 841 573 showImgOrVid 1;
#X obj 438 314 pix_image;
#X obj 364 25 netreceive -u 3003;
#X obj 414 198 spigot 0;
#X obj 539 196 spigot 0;
#X obj 431 113 select image video;
#X msg 437 155 1;
#X msg 494 151 0;
#X msg 535 153 0;
#X msg 569 151 1;
#X text 368 195 image;
#X text 634 192 vid;
#X obj 438 252 spigot 0;
#X obj 505 487 outlet;
#X obj 579 42 gemhead;
#X obj 621 254 spigot 0;
#X obj 621 310 pix_movie;
#X msg 621 280 open \$1;
#X obj 364 52 unpack s s;
#X obj 191 292 print image;
#X msg 438 284 open \$1;
#X obj 703 216 netreceive -u 3004;
#X obj 704 256 unpack f f;
#X obj 237 78 gemhead;
#X obj 395 419 spigot 0;
#X obj 584 424 spigot 0;
#X obj 290 371 print hello;
#X obj 743 299 s channel;
#X connect 0 0 23 0;
#X connect 1 0 17 0;
#X connect 2 0 0 0;
#X connect 3 0 15 0;
#X connect 4 0 5 0;
#X connect 4 0 18 0;
#X connect 4 0 6 0;
#X connect 4 1 7 0;
#X connect 4 1 8 0;
#X connect 5 0 2 1;
#X connect 5 0 11 1;
#X connect 5 0 23 1;
#X connect 6 0 3 1;
#X connect 6 0 14 1;
#X connect 6 0 24 1;
#X connect 7 0 2 1;
#X connect 7 0 11 1;
#X connect 7 0 23 1;
#X connect 8 0 3 1;
#X connect 8 0 14 1;
#X connect 8 0 24 1;
#X connect 11 0 19 0;
#X connect 13 0 15 0;
#X connect 14 0 16 0;
#X connect 15 0 24 0;
#X connect 16 0 15 0;
#X connect 17 0 11 0;
#X connect 17 0 14 0;
#X connect 17 1 4 0;
#X connect 19 0 0 0;
#X connect 19 0 25 0;
#X connect 20 0 21 0;
#X connect 21 0 15 1;
#X connect 21 1 26 0;
#X connect 22 0 0 0;
#X connect 23 0 12 0;
#X connect 24 0 12 0;
#X restore 554 113 pd showImgOrVid;
#X obj 731 23 declare -lib Gem;
#X obj 553 718 translateXYZ;
#X obj 59 373 unpack f f f f f f f;
#X obj 580 658 r transX;
#X obj 607 684 r transY;
#X obj 171 450 s transXPercent;
#X obj 196 476 s transYPercent;
#X floatatom 489 720 5 0 0 0 - - -;
#X obj 689 468 s scale;
#X obj 306 412 colorRGB 0 1 0;
#X msg 367 493 font ARCADECLASSIC.TTF;
#X msg 478 413 text \$1;
#X msg 369 462 font MILLENNIA.TTF;
#X msg 302 565 justify left base;
#X obj 365 545 nbx 5 14 -1e+37 1e+37 0 0 empty empty empty 0 -8 0 10
-262144 -1 -1 0 256;
#X obj 371 435 loadbang;
#X obj 377 191 change 0;
#X obj 377 166 r channel;
#X obj 377 239 t b b a;
#X obj 306 353 spigot 0;
#X msg 359 323 1;
#X msg 376 296 0;
#X msg 417 348 text wrong;
#X obj 425 322 select -1 -2;
#X obj 376 266 delay 2000;
#X obj 264 319 gemhead 51;
#X obj 306 596 text3d;
#X obj 306 381 translateXYZ -4.9 2.75 0;
#X msg 445 618 text vol \$1;
#X obj 447 547 - 10;
#X obj 448 580 * 10;
#X obj 497 378 moses 10;
#X connect 0 0 57 0;
#X connect 4 0 8 0;
#X connect 5 0 9 0;
#X connect 6 0 10 0;
#X connect 7 0 11 0;
#X connect 12 0 0 0;
#X connect 13 0 33 0;
#X connect 14 0 12 3;
#X connect 15 0 34 0;
#X connect 16 0 12 4;
#X connect 17 0 58 0;
#X connect 18 0 22 0;
#X connect 18 1 23 0;
#X connect 24 0 25 0;
#X connect 24 1 28 0;
#X connect 25 0 26 0;
#X connect 25 1 29 0;
#X connect 27 0 24 0;
#X connect 31 0 30 1;
#X connect 33 0 12 1;
#X connect 34 0 12 2;
#X connect 35 0 39 0;
#X connect 35 0 43 3;
#X connect 36 0 33 0;
#X connect 36 0 34 0;
#X connect 36 2 34 1;
#X connect 36 2 33 1;
#X connect 37 0 31 0;
#X connect 37 0 30 2;
#X connect 38 0 42 0;
#X connect 39 0 38 0;
#X connect 39 1 40 0;
#X connect 40 0 41 0;
#X connect 41 0 38 0;
#X connect 42 0 36 0;
#X connect 42 0 37 0;
#X connect 42 0 64 0;
#X connect 43 0 12 0;
#X connect 44 0 43 0;
#X connect 44 1 47 0;
#X connect 44 2 48 0;
#X connect 47 0 50 0;
#X connect 48 0 49 0;
#X connect 49 0 51 0;
#X connect 49 1 46 0;
#X connect 50 0 51 0;
#X connect 50 1 45 0;
#X connect 53 0 35 0;
#X connect 54 0 47 0;
#X connect 54 0 48 0;
#X connect 55 0 44 0;
#X connect 57 0 30 0;
#X connect 58 0 18 0;
#X connect 58 1 19 0;
#X connect 58 2 20 0;
#X connect 58 3 21 0;
#X connect 58 4 52 0;
#X connect 58 5 61 0;
#X connect 58 6 62 0;
#X connect 59 0 57 1;
#X connect 59 0 63 0;
#X connect 60 0 57 2;
#X connect 65 0 82 0;
#X connect 66 0 82 0;
#X connect 67 0 82 0;
#X connect 68 0 82 0;
#X connect 69 0 82 0;
#X connect 70 0 82 1;
#X connect 71 0 68 0;
#X connect 71 0 69 0;
#X connect 72 0 74 0;
#X connect 73 0 72 0;
#X connect 74 0 80 0;
#X connect 74 1 76 0;
#X connect 74 2 79 0;
#X connect 75 0 83 0;
#X connect 76 0 75 1;
#X connect 77 0 75 1;
#X connect 78 0 82 0;
#X connect 79 0 78 0;
#X connect 79 1 78 0;
#X connect 79 2 87 0;
#X connect 80 0 77 0;
#X connect 81 0 75 0;
#X connect 83 0 65 0;
#X connect 84 0 82 0;
#X connect 85 0 86 0;
#X connect 86 0 84 0;
#X connect 87 0 67 0;
#X connect 87 1 85 0;
