#N canvas 511 234 1031 738 12;
#X obj 312 606 netsend -u;
#X obj 530 367 + 1;
#X obj 498 282 until;
#X obj 498 394 int 1;
#X msg 544 250 1;
#X msg 106 404 disconnect;
#X obj 440 315 t b b b;
#X obj 488 246 int 1;
#X obj 520 214 r totalTVs;
#X obj 497 185 t b b;
#X obj 385 113 spigot 0;
#X obj 539 113 spigot 1;
#X obj 438 89 r debug;
#X obj 590 62 r debug;
#X obj 588 85 == 0;
#X obj 316 150 t b b b;
#X obj 577 395 i \$3;
#X obj 534 427 pack f f;
#X obj 577 366 loadbang;
#X obj 486 -18 r \$1;
#X obj 532 -18 r \$2;
#X obj 486 64 t b;
#X obj 362 205 i \$3;
#X msg 326 243 connect localhost \$1;
#N canvas 1248 1328 551 687 packMe 0;
#X obj 112 167 spigot 0;
#X obj 285 162 spigot 0;
#X obj 219 51 == 0;
#X obj 183 51 i \$4;
#X obj 183 23 loadbang;
#X obj 148 51 r \$1;
#X obj 261 193 int;
#X obj 77 384 symbol;
#X obj 77 412 pack s s;
#X obj 233 428 pack f f;
#X obj 130 278 spigot 0;
#X obj 286 397 spigot 0;
#X obj 130 250 r \$2;
#X obj 282 232 r \$2;
#X obj 101 50 inlet;
#X obj 77 141 spigot 0;
#X obj 261 128 spigot 0;
#X obj 178 496 list trim;
#X obj 178 521 outlet;
#X obj 178 470 list prepend send;
#X obj 112 192 list prepend symbol;
#X obj 114 222 list trim;
#X obj 130 304 list prepend symbol;
#X obj 130 329 list trim;
#X connect 0 0 20 0;
#X connect 1 0 6 1;
#X connect 2 0 1 1;
#X connect 2 0 11 1;
#X connect 2 0 16 1;
#X connect 3 0 2 0;
#X connect 3 0 0 1;
#X connect 3 0 10 1;
#X connect 3 0 15 1;
#X connect 4 0 3 0;
#X connect 5 0 0 0;
#X connect 5 0 1 0;
#X connect 6 0 9 0;
#X connect 7 0 8 0;
#X connect 8 0 19 0;
#X connect 9 0 19 0;
#X connect 10 0 22 0;
#X connect 11 0 9 1;
#X connect 12 0 10 0;
#X connect 13 0 11 0;
#X connect 14 0 15 0;
#X connect 14 0 16 0;
#X connect 15 0 7 0;
#X connect 16 0 6 0;
#X connect 17 0 18 0;
#X connect 19 0 17 0;
#X connect 20 0 21 0;
#X connect 21 0 7 1;
#X connect 22 0 23 0;
#X connect 23 0 8 1;
#X restore 358 459 pd packMe;
#X msg 495 462 connect 172.16.1.\$1 \$2;
#X connect 1 0 3 1;
#X connect 2 0 6 0;
#X connect 3 0 1 0;
#X connect 3 0 17 0;
#X connect 4 0 3 1;
#X connect 5 0 0 0;
#X connect 6 0 5 0;
#X connect 6 1 24 0;
#X connect 6 2 3 0;
#X connect 7 0 2 0;
#X connect 8 0 7 1;
#X connect 9 0 7 0;
#X connect 9 1 4 0;
#X connect 10 0 15 0;
#X connect 11 0 9 0;
#X connect 12 0 10 1;
#X connect 13 0 14 0;
#X connect 14 0 11 1;
#X connect 15 0 5 0;
#X connect 15 1 24 0;
#X connect 15 2 22 0;
#X connect 16 0 17 1;
#X connect 17 0 25 0;
#X connect 18 0 16 0;
#X connect 19 0 21 0;
#X connect 20 0 21 0;
#X connect 21 0 11 0;
#X connect 21 0 10 0;
#X connect 22 0 23 0;
#X connect 23 0 0 0;
#X connect 24 0 0 0;
#X connect 25 0 0 0;
