#N canvas 869 1290 807 610 12;
#X obj 140 95 r totalTVs;
#X obj 54 261 int 1;
#X obj 43 306 until;
#X obj 77 216 t b b;
#X msg 106 265 1;
#X obj 59 344 int 1;
#X obj 103 343 + 1;
#X msg 105 97 4;
#X obj 30 118 bng 15 250 50 0 empty empty empty 17 7 0 10 -262144 -1
-1;
#X msg 94 428 \; \$1-r-dimX-slider range 0 \$2;
#X obj 56 391 pack f f;
#X obj 223 96 r totalXInches;
#X obj 142 130 t b f;
#X obj 224 125 t b f;
#X msg 59 475 \; \$1-r-dimX-num range 0 \$2;
#X obj 470 95 r totalTVs;
#X obj 384 261 int 1;
#X obj 373 306 until;
#X obj 407 216 t b b;
#X msg 436 265 1;
#X obj 389 344 int 1;
#X obj 433 343 + 1;
#X msg 435 97 4;
#X obj 360 118 bng 15 250 50 0 empty empty empty 17 7 0 10 -262144
-1 -1;
#X obj 386 391 pack f f;
#X obj 472 130 t b f;
#X obj 554 125 t b f;
#X obj 553 96 r totalYInches;
#X msg 424 428 \; \$1-r-dimY-slider range 0 \$2;
#X msg 389 475 \; \$1-r-dimY-num range 0 \$2;
#X msg 371 518 \; \$1-r-offsetY-slider range 0 \$2;
#X msg 336 565 \; \$1-r-offsetY-num range 0 \$2;
#X msg 91 518 \; \$1-r-offsetX-slider range 0 \$2;
#X msg 56 565 \; \$1-r-offsetX-num range 0 \$2;
#X connect 0 0 12 0;
#X connect 1 0 2 0;
#X connect 2 0 5 0;
#X connect 3 0 1 0;
#X connect 3 1 4 0;
#X connect 4 0 5 1;
#X connect 5 0 6 0;
#X connect 5 0 10 0;
#X connect 6 0 5 1;
#X connect 7 0 1 1;
#X connect 8 0 3 0;
#X connect 10 0 9 0;
#X connect 10 0 14 0;
#X connect 10 0 32 0;
#X connect 10 0 33 0;
#X connect 11 0 13 0;
#X connect 12 0 3 0;
#X connect 12 1 1 1;
#X connect 13 0 3 0;
#X connect 13 1 10 1;
#X connect 15 0 25 0;
#X connect 16 0 17 0;
#X connect 17 0 20 0;
#X connect 18 0 16 0;
#X connect 18 1 19 0;
#X connect 19 0 20 1;
#X connect 20 0 21 0;
#X connect 20 0 24 0;
#X connect 21 0 20 1;
#X connect 22 0 16 1;
#X connect 23 0 18 0;
#X connect 24 0 28 0;
#X connect 24 0 29 0;
#X connect 24 0 30 0;
#X connect 24 0 31 0;
#X connect 25 0 18 0;
#X connect 25 1 16 1;
#X connect 26 0 18 0;
#X connect 26 1 24 1;
#X connect 27 0 26 0;
