#N canvas 310 146 523 607 12;
#X obj 90 137 list fromsymbol;
#X obj 90 162 list split 1;
#X obj 338 169 list split 1;
#X obj 184 249 ==;
#X obj 259 487 list;
#X obj 204 455 t b b;
#X obj 204 482 list;
#X obj 184 274 select 0 1;
#X obj 226 312 int 0;
#X obj 267 285 + 1;
#X msg 267 96 0;
#X obj 204 424 moses 6;
#X obj 278 338 loadbang;
#X obj 279 361 \$2;
#X obj 338 111 symbol \$1;
#X obj 338 144 list fromsymbol;
#X obj 352 72 bng 15 250 50 0 empty empty empty 17 7 0 10 -262144 -1
-1;
#X obj 279 389 - 1;
#X obj 221 9 inlet;
#X obj 221 55 t a b b;
#X obj 185 557 outlet;
#X msg 185 513 0;
#X msg 241 523 1;
#X obj 221 31 symbol;
#X connect 0 0 1 0;
#X connect 1 0 3 0;
#X connect 1 1 6 1;
#X connect 1 2 21 0;
#X connect 2 0 3 1;
#X connect 2 1 4 1;
#X connect 3 0 7 0;
#X connect 4 0 2 0;
#X connect 5 0 6 0;
#X connect 5 1 4 0;
#X connect 6 0 1 0;
#X connect 7 0 21 0;
#X connect 7 1 8 0;
#X connect 8 0 9 0;
#X connect 8 0 11 0;
#X connect 9 0 8 1;
#X connect 10 0 8 1;
#X connect 11 0 5 0;
#X connect 11 1 22 0;
#X connect 12 0 13 0;
#X connect 13 0 17 0;
#X connect 14 0 15 0;
#X connect 15 0 2 0;
#X connect 16 0 14 0;
#X connect 17 0 11 1;
#X connect 18 0 23 0;
#X connect 19 0 0 0;
#X connect 19 1 14 0;
#X connect 19 2 10 0;
#X connect 21 0 20 0;
#X connect 22 0 20 0;
#X connect 23 0 19 0;
